<svg width="1280" height="514" viewBox="0 0 1280 514" fill="none" xmlns="http://www.w3.org/2000/svg">
<g clip-path="url(#clip0_109_1056)">
<rect y="-74" width="1280" height="836" fill="#F4F4F4"/>
<path fill-rule="evenodd" clip-rule="evenodd" d="M1647.3 493.685L1647.71 500.218L1647.61 506.773L1647.02 513.337L1645.94 519.892L1644.38 526.423L1642.34 532.916L1639.83 539.354L1636.87 545.725L1633.48 552.014L1629.66 558.209L1625.45 564.297L1620.86 570.268L1615.92 576.112L1610.64 581.82L1605.07 587.384L1599.22 592.799L1593.12 598.059L1586.8 603.161L1580.3 608.103L1573.63 612.883L1566.83 617.501L1559.93 621.959L1552.95 626.258L1545.91 630.402L1538.83 634.393L1531.75 638.238L1524.68 641.94L1517.63 645.505L1510.63 648.94L1503.7 652.25L1496.83 655.442L1490.06 658.524L1483.39 661.503L1476.84 664.388L1470.41 667.186L1464.11 669.906L1457.96 672.557L1451.97 675.147L1446.14 677.687L1440.47 680.186L1434.99 682.653L1429.68 685.098L1424.56 687.531L1419.64 689.963L1414.91 692.402L1410.38 694.859L1406.05 697.344L1401.92 699.867L1398 702.436L1394.28 705.062L1390.76 707.752L1387.44 710.516L1384.31 713.361L1381.38 716.294L1378.63 719.323L1376.06 722.453L1373.66 725.689L1371.43 729.037L1369.35 732.498L1367.42 736.077L1365.63 739.774L1363.96 743.591L1362.4 747.527L1360.94 751.581L1359.57 755.751L1358.27 760.032L1357.04 764.421L1355.85 768.912L1354.69 773.499L1353.54 778.175L1352.41 782.93L1351.26 787.757L1350.09 792.645L1348.88 797.583L1347.62 802.56L1346.3 807.565L1344.9 812.585L1343.42 817.608L1341.85 822.62L1340.17 827.609L1338.38 832.561L1336.47 837.464L1334.43 842.305L1332.25 847.071L1329.95 851.75L1327.5 856.331L1324.9 860.802L1322.17 865.153L1319.28 869.376L1316.26 873.46L1313.09 877.399L1309.78 881.187L1306.34 884.817L1302.77 888.285L1299.06 891.588L1295.24 894.725L1291.3 897.695L1287.26 900.496L1283.11 903.132L1278.87 905.605L1274.54 907.918L1270.13 910.074L1265.66 912.08L1261.12 913.94L1256.52 915.66L1251.87 917.247L1247.18 918.708L1242.46 920.051L1237.7 921.286L1232.93 922.426L1228.14 923.481L1223.34 924.467L1218.53 925.397L1213.73 926.284L1208.93 927.144L1204.15 927.99L1199.37 928.836L1194.61 929.693L1189.87 930.573L1185.14 931.488L1180.42 932.449L1175.72 933.466L1171.04 934.55L1166.36 935.711L1161.69 936.958L1157.03 938.301L1152.37 939.746L1147.71 941.303L1143.04 942.976L1138.36 944.772L1133.67 946.696L1128.95 948.751L1124.21 950.94L1119.44 953.265L1114.62 955.726L1109.76 958.323L1104.85 961.053L1099.88 963.914L1094.85 966.901L1089.75 970.009L1084.58 973.231L1079.32 976.56L1073.99 979.985L1068.56 983.498L1063.04 987.087L1057.42 990.739L1051.7 994.443L1045.88 998.183L1039.96 1001.95L1033.94 1005.71L1027.81 1009.47L1021.57 1013.21L1015.24 1016.9L1008.8 1020.53L1002.27 1024.09L995.645 1027.55L988.932 1030.9L982.135 1034.12L975.262 1037.19L968.318 1040.11L961.311 1042.84L954.249 1045.39L947.141 1047.73L939.995 1049.84L932.822 1051.73L925.631 1053.37L918.431 1054.75L911.235 1055.86L904.052 1056.7L896.893 1057.26L889.768 1057.54L882.689 1057.51L875.666 1057.2L868.709 1056.58L861.828 1055.66L855.034 1054.44L848.335 1052.93L841.74 1051.11L835.258 1049.01L828.897 1046.61L822.663 1043.94L816.564 1040.99L810.606 1037.77L804.792 1034.29L799.129 1030.56L793.619 1026.59L788.265 1022.4L783.07 1017.99L778.033 1013.37L773.157 1008.56L768.439 1003.57L763.879 998.421L759.474 993.117L755.22 987.676L751.114 982.113L747.149 976.44L743.322 970.674L739.624 964.826L736.05 958.911L732.593 952.942L729.244 946.929L725.996 940.886L722.842 934.822L719.773 928.747L716.782 922.671L713.861 916.6L711.004 910.542L708.204 904.502L705.456 898.484L702.753 892.494L700.09 886.534L697.46 880.608L694.857 874.72L692.274 868.872L689.704 863.068L687.143 857.31L684.584 851.598L682.021 845.934L679.449 840.318L676.865 834.749L674.264 829.227L671.644 823.75L669.002 818.315L666.337 812.92L663.648 807.561L660.935 802.235L658.199 796.939L655.442 791.666L652.665 786.414L649.873 781.178L647.068 775.952L644.256 770.732L641.44 765.513L638.628 760.289L635.825 755.058L633.038 749.813L630.274 744.55L627.541 739.267L624.845 733.958L622.196 728.62L619.602 723.251L617.071 717.847L614.611 712.407L612.231 706.928L609.94 701.409L607.746 695.849L605.657 690.247L603.682 684.604L601.827 678.92L600.102 673.195L598.513 667.43L597.068 661.628L595.772 655.791L594.633 649.92L593.657 644.018L592.848 638.089L592.211 632.136L591.752 626.162L591.473 620.173L591.38 614.171L591.474 608.161L591.758 602.149L592.234 596.138L592.904 590.133L593.768 584.141L594.827 578.165L596.081 572.211L597.53 566.285L599.171 560.391L601.004 554.535L603.026 548.721L605.235 542.955L607.628 537.243L610.201 531.587L612.95 525.995L615.87 520.469L618.957 515.015L622.204 509.636L625.606 504.336L629.155 499.12L632.844 493.989L636.665 488.948L640.61 483.999L644.669 479.143L648.832 474.382L653.09 469.718L657.432 465.152L661.851 460.684L666.338 456.314L670.883 452.042L675.48 447.869L680.119 443.793L684.793 439.813L689.493 435.928L694.212 432.136L698.94 428.435L703.668 424.822L708.388 421.295L713.09 417.849L717.766 414.48L722.407 411.186L727.004 407.96L731.551 404.798L736.04 401.696L740.464 398.647L744.816 395.647L749.09 392.69L753.279 389.769L757.378 386.878L761.38 384.011L765.282 381.16L769.076 378.32L772.76 375.482L776.329 372.639L779.779 369.784L783.107 366.91L786.311 364.009L789.388 361.074L792.338 358.098L795.16 355.073L797.853 351.993L800.42 348.852L802.861 345.643L805.179 342.36L807.378 338.999L809.461 335.555L811.432 332.023L813.299 328.4L815.066 324.684L816.742 320.872L818.334 316.964L819.85 312.959L821.299 308.858L822.692 304.663L824.037 300.375L825.347 295.998L826.631 291.536L827.901 286.995L829.167 282.381L830.443 277.7L831.738 272.961L833.065 268.172L834.434 263.342L835.856 258.483L837.343 253.603L838.904 248.715L840.549 243.83L842.287 238.96L844.127 234.118L846.076 229.315L848.141 224.564L850.328 219.878L852.643 215.269L855.088 210.748L857.669 206.326L860.386 202.015L863.242 197.825L866.236 193.764L869.367 189.842L872.634 186.065L876.034 182.44L879.564 178.972L883.22 175.665L886.995 172.522L890.885 169.544L894.883 166.733L898.983 164.086L903.176 161.602L907.457 159.279L911.818 157.112L916.251 155.096L920.748 153.227L925.304 151.499L929.91 149.906L934.56 148.441L939.247 147.096L943.965 145.862L948.707 144.728L953.466 143.683L958.237 142.715L963.013 141.814L967.791 140.964L972.566 140.156L977.335 139.376L982.094 138.613L986.843 137.857L991.579 137.097L996.302 136.325L1001.01 135.53L1005.71 134.702L1010.39 133.831L1015.07 132.907L1019.73 131.919L1024.38 130.857L1029.03 129.712L1033.68 128.474L1038.32 127.135L1042.97 125.687L1047.63 124.124L1052.31 122.439L1057 120.629L1061.72 118.69L1066.47 116.619L1071.25 114.416L1076.08 112.081L1080.95 109.617L1085.88 107.025L1090.87 104.312L1095.92 101.482L1101.04 98.544L1106.24 95.5061L1111.52 92.3784L1116.88 89.1722L1122.34 85.9002L1127.88 82.576L1133.51 79.2141L1139.24 75.8304L1145.06 72.4413L1150.98 69.0639L1156.98 65.7163L1163.09 62.4169L1169.27 59.1845L1175.55 56.0381L1181.9 52.9971L1188.33 50.0809L1194.83 47.3085L1201.39 44.6992L1208 42.2715L1214.65 40.0436L1221.34 38.0333L1228.05 36.2575L1234.78 34.7323L1241.51 33.4732L1248.22 32.4942L1254.92 31.8088L1261.57 31.4288L1268.18 31.3652L1274.72 31.6275L1281.19 32.2238L1287.56 33.161L1293.83 34.4444L1299.99 36.078L1306.01 38.0642L1311.89 40.404L1317.61 43.0968L1323.16 46.1406L1328.53 49.5321L1333.71 53.2663L1338.69 57.337L1343.45 61.7364L1348 66.4557L1352.32 71.4843L1356.4 76.8109L1360.24 82.4225L1363.84 88.3053L1367.19 94.4442L1370.29 100.823L1373.14 107.424L1375.73 114.23L1378.08 121.221L1380.18 128.377L1382.05 135.677L1383.68 143.1L1385.08 150.622L1386.28 158.223L1387.27 165.879L1388.07 173.567L1388.7 181.263L1389.17 188.943L1389.51 196.585L1389.72 204.166L1389.84 211.664L1389.88 219.058L1389.87 226.33L1389.83 233.461L1389.78 240.437L1389.73 247.242L1389.73 253.864L1389.78 260.291L1389.91 266.512L1390.15 272.517L1390.51 278.299L1391.02 283.852L1391.71 289.171L1392.59 294.253L1393.69 299.098L1395.02 303.707L1396.6 308.081L1398.45 312.228L1400.58 316.152L1403 319.862L1405.73 323.368L1408.78 326.682L1412.14 329.816L1415.83 332.784L1419.83 335.603L1424.17 338.287L1428.82 340.855L1433.79 343.325L1439.07 345.714L1444.64 348.041L1450.5 350.326L1456.63 352.588L1463.02 354.846L1469.64 357.119L1476.47 359.424L1483.51 361.782L1490.71 364.207L1498.06 366.718L1505.52 369.33L1513.08 372.057L1520.71 374.913L1528.36 377.911L1536.02 381.062L1543.66 384.376L1551.23 387.861L1558.72 391.523L1566.09 395.37L1573.3 399.404L1580.34 403.629L1587.16 408.044L1593.75 412.651L1600.06 417.446L1606.08 422.427L1611.78 427.589L1617.13 432.925L1622.11 438.428L1626.69 444.089L1630.87 449.898L1634.61 455.845L1637.91 461.917L1640.75 468.102L1643.12 474.386L1645.01 480.754L1646.4 487.192L1647.3 493.685Z" fill="#7CD300"/>
</g>
<defs>
<clipPath id="clip0_109_1056">
<rect width="1280" height="514" fill="white"/>
</clipPath>
</defs>
</svg>
